<svg width="1024" height="1024" viewBox="0 0 1024 1024" fill="none" xmlns="http://www.w3.org/2000/svg">
  <defs>
    <linearGradient id="sakura-grad" x1="200" y1="200" x2="800" y2="800" gradientUnits="userSpaceOnUse">
      <stop offset="0%" stop-color="#FFB7C5" />
      <stop offset="100%" stop-color="#FF69B4" />
    </linearGradient>
    <linearGradient id="neural-grad" x1="200" y1="200" x2="800" y2="800" gradientUnits="userSpaceOnUse">
      <stop offset="0%" stop-color="#00FFFF" />
      <stop offset="100%" stop-color="#00CED1" />
    </linearGradient>
    <filter id="glow" x="-20%" y="-20%" width="140%" height="140%">
      <feGaussianBlur stdDeviation="30" result="blur" />
      <feComposite in="SourceGraphic" in2="blur" operator="over" />
    </filter>
  </defs>
  
  <!-- Abstract Sakura Neural Shell -->
  <g filter="url(#glow)">
    <!-- Sakura Petals (Left Side) -->
    <path d="M512 512C512 512 350 350 250 400C150 450 180 600 250 700C320 800 512 512 512 512Z" fill="url(#sakura-grad)" opacity="0.8" />
    <path d="M512 512C512 512 400 200 550 150C700 100 800 300 700 450C600 600 512 512 512 512Z" fill="url(#sakura-grad)" opacity="0.6" />
    
    <!-- Neural Nodes (Right Side) -->
    <circle cx="650" cy="512" r="40" fill="url(#neural-grad)" />
    <circle cx="750" cy="400" r="30" fill="url(#neural-grad)" />
    <circle cx="750" cy="624" r="30" fill="url(#neural-grad)" />
    <circle cx="850" cy="512" r="25" fill="url(#neural-grad)" />
    
    <!-- Neural Connections -->
    <path d="M512 512L650 512M650 512L750 400M650 512L750 624M750 400L850 512M750 624L850 512" stroke="url(#neural-grad)" stroke-width="8" stroke-linecap="round" />
  </g>
  
  <!-- Center Core -->
  <circle cx="512" cy="512" r="60" fill="#FFFFFF" opacity="0.9" filter="url(#glow)" />
</svg>
